<?xml version="1.0" encoding="UTF-8"?>
<svg id="Layer_1" data-name="Layer 1" xmlns="http://www.w3.org/2000/svg" viewBox="0 0 199.18 131.11">
  <defs>
    <style>
      .cls-1 {
        fill: #e8008a;
      }

      .cls-2 {
        font-family: FbSpacerPro-Bold, FbSpacerPro;
        font-size: 36px;
        font-weight: 700;
      }

      .cls-2, .cls-3 {
        fill: #231f20;
      }

      .cls-4 {
        fill: #139c9a;
      }
    </style>
  </defs>
  <g>
    <path class="cls-3" d="M73.5,43.94c-1.87,5.67-4.84,10.6-8.9,14.79l-1.89-27.26c-.23-3.51-.57-5.85-1.01-7.01-.67-1.77-1.91-2.66-3.73-2.66h-13.41c1.84,6.67,3.01,13.33,3.51,19.96-1.17,4.64-2.74,9.2-4.72,13.68h-19.48l5.65-14.26h8.55c-.82-6.19-2.41-12.65-4.78-19.38h-7.63c1.99-6.99,5.73-14.13,11.22-21.41.73,2.39,1.64,4.77,2.72,7.15h24.12c3.39,0,5.72,1.52,7,4.54.7,1.68,1.17,4.51,1.4,8.51l1.36,23.35Z"/>
    <path class="cls-1" d="M104.88,43.65c-.97,4.45-2.54,9.04-4.71,13.78l-4.73-19.13c-1.46,4.14-3.23,8.22-5.3,12.24-3.65,3.82-7.75,6.31-12.31,7.47l3.07-15.57c4.88-1.19,9.07-4.87,12.58-11.03-.61-2.45-1.55-5.39-2.81-8.81-3.21-3.26-6.93-6.1-11.13-8.52l7.28-14.08c4.17,3.32,6.81,5.53,7.91,6.62,3,2.97,4.78,5.8,5.33,8.51.44,2.1,1.21,6.4,2.32,12.91l2.5,15.61Z"/>
    <path class="cls-1" d="M121.31,73.88l-4.94-4.49,4.04-5.41,4.94,4.49-4.04,5.41ZM128.49,83.58l-4.94-4.49,4.04-5.41,4.94,4.49-4.04,5.41ZM135.87,74.07l-4.94-4.49,4.04-5.41,4.94,4.49-4.04,5.41Z"/>
    <path class="cls-4" d="M82.84,73.88l-4.94-4.49,4.04-5.41,4.94,4.49-4.04,5.41ZM90.02,83.58l-4.94-4.49,4.04-5.41,4.94,4.49-4.04,5.41ZM97.4,74.07l-4.94-4.49,4.04-5.41,4.94,4.49-4.04,5.41Z"/>
    <path class="cls-4" d="M147.63,13.2c0,5.7-2.75,11.79-8.24,18.27,3.77,4.16,6.34,7.77,7.72,10.83-1.46,4.87-3.23,9.25-5.31,13.15h-32.49l6.1-14.26h21.03c-2.55-2.51-5.28-4.93-8.21-7.25-3.89-3.06-6.57-5.24-8.04-6.53-5.3-4.61-8.75-8.83-10.36-12.67,2.61-4.99,5.84-9.57,9.7-13.73.26,4.67,2.27,9.46,6.02,14.36,3.31,4,6.62,7.98,9.92,11.94,1.32-1.45,1.98-3.29,1.98-5.51,0-2.74-1.17-5.16-3.51-7.25l8.66-13.87c3.35,4.45,5.02,8.62,5.02,12.52Z"/>
    <path class="cls-3" d="M184.91,67.87h-6.36l.35,10.01h-5.35l.26-10.01h-6.44l1-5.99h17.54l-1,5.99Z"/>
    <path class="cls-3" d="M199.18,34.27c0,7.86-1.7,14.92-5.09,21.17h-26.7l5.92-14.26h16.75c0-5.2-.77-9.77-2.32-13.71-1.93-4.94-4.73-7.41-8.4-7.41-2.71,0-5.08,1.52-7.09,4.55-1.2,1.81-2.51,4.74-3.94,8.78-1.43,4.05-2.68,8.37-3.76,12.95-3.3,4.9-7.31,9-12.01,12.29l5.65-20.04c1.02-3.61,1.53-6.42,1.53-8.42,0-4.16-2.46-8.6-7.37-13.3l10.67-15.71c4.55,8.31,6.79,15.21,6.73,20.69,1.93-5.11,3.54-8.64,4.82-10.6,2.4-3.66,5.22-5.49,8.46-5.49,5.7,0,9.97,3.27,12.8,9.81,2.22,5.09,3.33,11.33,3.33,18.71Z"/>
  </g>
  <text class="cls-2" transform="translate(17.69 119.43)"><tspan x="0" y="0">זה כל הסיפור</tspan></text>
</svg>